<svg width="17" height="17" viewBox="0 0 17 17" fill="none" xmlns="http://www.w3.org/2000/svg">
<circle cx="8.5" cy="8.5" r="8.5" fill="#46A0F0"/>
<path d="M7.51908 11.25C7.45624 11.2498 7.39411 11.2367 7.33655 11.2115C7.27899 11.1862 7.22724 11.1494 7.1845 11.1034L4.957 8.73377C4.87373 8.64503 4.82913 8.52685 4.833 8.40523C4.83686 8.2836 4.88889 8.16849 4.97763 8.08523C5.06636 8.00196 5.18454 7.95736 5.30617 7.96122C5.42779 7.96509 5.5429 8.01712 5.62617 8.10585L7.5145 10.1179L11.3691 5.90127C11.4082 5.85256 11.4569 5.81236 11.5121 5.78314C11.5673 5.75392 11.6279 5.7363 11.6902 5.73136C11.7525 5.72641 11.8151 5.73425 11.8742 5.7544C11.9334 5.77454 11.9878 5.80656 12.0341 5.84849C12.0804 5.89042 12.1176 5.94138 12.1435 5.99823C12.1694 6.05508 12.1834 6.11662 12.1847 6.17908C12.1859 6.24154 12.1744 6.3036 12.1508 6.36144C12.1272 6.41928 12.092 6.47169 12.0474 6.51544L7.85825 11.0988C7.81592 11.1457 7.76435 11.1833 7.70677 11.2094C7.64919 11.2354 7.58685 11.2492 7.52367 11.25H7.51908Z" fill="#EFF2F5"/>
</svg>
