<?xml version="1.0"?><svg fill="#000000" xmlns="http://www.w3.org/2000/svg" viewBox="0 0 24 24" width="24px" height="24px">    <path d="M 4 4 C 2.897 4 2 4.897 2 6 L 2 18 C 2 19.103 2.897 20 4 20 L 20 20 C 21.103 20 22 19.103 22 18 L 22 6 C 22 4.897 21.103 4 20 4 L 4 4 z M 4 6 L 20 6 L 20.001953 18 L 4 18 L 4 6 z M 5 9 L 5 15 L 6.1347656 15 L 6.1347656 11.052734 L 8.3457031 15 L 9.4824219 15 L 9.4824219 9 L 8.3496094 9 L 8.3496094 12.955078 L 6.1367188 9 L 5 9 z M 10 9 L 10 15 L 13.693359 15 L 13.695312 15 L 13.695312 14.007812 L 11.136719 14.007812 L 11.136719 12.400391 L 13.316406 12.400391 L 13.316406 11.431641 L 11.136719 11.431641 L 11.136719 10.001953 L 13.6875 10.001953 L 13.6875 9 L 10 9 z M 14 9 L 14 14 C 14 14.55 14.374984 15 14.833984 15 L 18.167969 15 C 18.625969 15 19 14.55 19 14 L 19 9 L 17.958984 9 L 17.958984 13.5 L 17.025391 13.5 L 17.025391 9.9902344 L 15.984375 9.9902344 L 15.984375 13.509766 L 15.042969 13.509766 L 15.042969 9 L 14 9 z"/></svg>